<svg xmlns="http://www.w3.org/2000/svg" preserveAspectRatio="none" width="964" height="127" viewBox="0 0 964 127"><path fill="#ae7f66" d="M287.95 0H247.1l76.1 127.75h41L287.95 0m-10.1 90.55l-2.2-1q-6.5 8-14.5 16.85-5.5 6.05-18.9 20.35h27.35q1.6-6.55 4.05-17.65 3.05-13.7 4.2-18.55M363.75 0H336.6q-2.2 15.7-5.6 32l2 1.2q8.5-10.1 14.55-16.65 5.85-6.3 16.2-16.55M45.3 60.75v2.65q18.05 4.55 31.6 8.65v-19.9q-7.45 2.2-15.3 4.3-9.55 2.5-16.3 4.3M36.25 0H0v126.75h36.25V0m56.5 19.3V0H45.1v2.65q12.65 3.7 24 7.75 7.5 2.65 23.65 8.9M885.9.55V127.3h36.2V.55h-36.2m-6.25 2.6V.55h-36.4v25.7q20.6-15.15 36.4-23.1m85.3 23.1V.55h-36.6v2.6q16 7.95 36.6 23.1M715.1.55V127.3h36.2V.55h-36.2m-6.25 2.6V.55H672.4v25.7q20.75-15.2 36.45-23.1m85.3 23.1V.55H757.5v2.6q15.75 7.8 36.65 23.1M453.1 0h-36.2v126.75h36.2V0m63 30.6q0-16-13.3-23.2Q489.85.35 461.15 0v2.65q11.4 1.5 16.15 6.5 6 6.25 6 21.25 0 13.8-5.05 20.55-4.75 6.35-14.9 7.65V61q11.85 1.1 17.15 7.35 6 7.05 6 22.6 0 17.85-7.9 25.95-6 6.15-17.45 7.25v2.6q30.6-.3 45-8 15.75-8.35 15.75-27 0-15-11.95-22.9-10-6.65-30.7-9.5V59q16.2-2.5 25.9-9.25 10.95-7.6 10.95-19.15m-327.45 96.15V0H152.4v126.75h36.25M622.05 0h-36.2v126.75h36.2V0z"/></svg>