
<svg xmlns="http://www.w3.org/2000/svg" version="1.1" xmlns:xlink="http://www.w3.org/1999/xlink" preserveAspectRatio="none" x="0px" y="0px" width="964px" height="127px" viewBox="0 0 964 127">
<g id="Layer0_0_FILL">
<path fill="#ae7f66" stroke="none" d="
M 287.95 0
L 247.1 0 323.2 127.75 364.2 127.75 287.95 0
M 277.85 90.55
L 275.65 89.55
Q 269.15 97.55 261.15 106.4 255.65 112.45 242.25 126.75
L 269.6 126.75
Q 271.2 120.2 273.65 109.1 276.7 95.4 277.85 90.55
M 363.75 0
L 336.6 0
Q 334.4 15.7 331 32
L 333 33.2
Q 341.5 23.1 347.55 16.55 353.4 10.25 363.75 0
M 45.3 60.75
L 45.3 63.4
Q 63.35 67.95 76.9 72.05
L 76.9 52.15
Q 69.45 54.35 61.6 56.45 52.05 58.95 45.3 60.75
M 36.25 0
L 0 0 0 126.75 36.25 126.75 36.25 0
M 92.75 19.3
L 92.75 0 45.1 0 45.1 2.65
Q 57.75 6.35 69.1 10.4 76.6 13.05 92.75 19.3
M 885.9 0.55
L 885.9 127.3 922.1 127.3 922.1 0.55 885.9 0.55
M 879.65 3.15
L 879.65 0.55 843.25 0.55 843.25 26.25
Q 863.85 11.1 879.65 3.15
M 964.95 26.25
L 964.95 0.55 928.35 0.55 928.35 3.15
Q 944.35 11.1 964.95 26.25
M 715.1 0.55
L 715.1 127.3 751.3 127.3 751.3 0.55 715.1 0.55
M 708.85 3.15
L 708.85 0.55 672.4 0.55 672.4 26.25
Q 693.15 11.05 708.85 3.15
M 794.15 26.25
L 794.15 0.55 757.5 0.55 757.5 3.15
Q 773.25 10.95 794.15 26.25
M 453.1 0
L 416.9 0 416.9 126.75 453.1 126.75 453.1 0
M 516.1 30.6
Q 516.1 14.6 502.8 7.4 489.85 0.35 461.15 0
L 461.15 2.65
Q 472.55 4.15 477.3 9.15 483.3 15.4 483.3 30.4 483.3 44.2 478.25 50.95 473.5 57.3 463.35 58.6
L 463.35 61
Q 475.2 62.1 480.5 68.35 486.5 75.4 486.5 90.95 486.5 108.8 478.6 116.9 472.6 123.05 461.15 124.15
L 461.15 126.75
Q 491.75 126.45 506.15 118.75 521.9 110.4 521.9 91.75 521.9 76.75 509.95 68.85 499.95 62.2 479.25 59.35
L 479.25 59
Q 495.45 56.5 505.15 49.75 516.1 42.15 516.1 30.6
M 188.65 126.75
L 188.65 0 152.4 0 152.4 126.75 188.65 126.75
M 622.05 0
L 585.85 0 585.85 126.75 622.05 126.75 622.05 0 Z"/>
</g>
</svg>
